# xmcd
#
# Track frame offsets: 
#        150
#        14702
#        28452
#        42717
#        55342
#        70632
#        83995
#        97652
#        111865
#        127137
#        140695
#        155282
#
# Disc length: 2242 seconds
#
# Revision: 4
# Processed by: cddbd v1.5.2PL0 Copyright (c) Steve Scherf et al.
# Submitted via: ExactAudioCopy v1.3
#
DISCID=ac08c00c
DTITLE=Thelonious Monk - Genius Of Modern Music Vol.1
DYEAR=1948
DGENRE=Jazz
TTITLE0='Round About Midnigh
TTITLE1=Off Minor
TTITLE2=Ruby My Dear
TTITLE3=I Mean You
TTITLE4=April In Paris
TTITLE5=In Walked Bud
TTITLE6=Thelonious
TTITLE7=Epistrophy
TTITLE8=Misterioso
TTITLE9=Well You Needn't
TTITLE10=Introspection
TTITLE11=Humph
EXTD=YEAR: 1948
EXTT0=
EXTT1=
EXTT2=
EXTT3=
EXTT4=
EXTT5=
EXTT6=
EXTT7=
EXTT8=
EXTT9=
EXTT10=
EXTT11=
PLAYORDER=
